<svg width="16" height="24" viewBox="0 0 16 24" fill="none" xmlns="http://www.w3.org/2000/svg">
<path d="M9.09093 12.3636C12.4996 12.3636 15.2728 9.59047 15.2728 6.18182C15.2728 2.77316 12.4996 0 9.09093 0C9.07762 0 9.06439 0.000218182 9.05122 0.000727273H4.00148C4.00097 0.000727273 4.00053 0.000654545 4.0001 0.000654545C3.39762 0.000654545 2.90919 0.489091 2.90919 1.09156V1.09164V11.2727V14.5455H1.8182C1.21573 14.5455 0.727295 15.0339 0.727295 15.6364C0.727295 16.2388 1.21573 16.7273 1.8182 16.7273H2.90911V22.9091C2.90911 23.5116 3.39755 24 4.00002 24C4.6025 24 5.09093 23.5116 5.09093 22.9091V16.7273H9.09093C9.69341 16.7273 10.1818 16.2388 10.1818 15.6364C10.1818 15.0339 9.69341 14.5455 9.09093 14.5455H5.09093V12.3636H9.09093ZM9.09093 2.18255C9.10271 2.18255 9.1145 2.18233 9.12613 2.18196C11.3157 2.20087 13.0909 3.98793 13.0909 6.18182C13.0909 8.38742 11.2965 10.1818 9.09093 10.1818H5.09093V2.18255H9.09093Z" fill="white"/>
</svg>
